<?xml version="1.0" encoding="UTF-8"?>
<!DOCTYPE svg PUBLIC "-//W3C//DTD SVG 1.1//EN" "http://www.w3.org/Graphics/SVG/1.1/DTD/svg11.dtd">
<svg xmlns="http://www.w3.org/2000/svg" version="1.1" width="1645px" height="1366px" style="shape-rendering:geometricPrecision; text-rendering:geometricPrecision; image-rendering:optimizeQuality; fill-rule:evenodd; clip-rule:evenodd" xmlns:xlink="http://www.w3.org/1999/xlink">
<g><path style="opacity:0.982" fill="#1c1c1c" d="M 707.5,-0.5 C 710.167,-0.5 712.833,-0.5 715.5,-0.5C 716.806,0.46739 717.473,1.80072 717.5,3.5C 717.783,4.28913 718.283,4.9558 719,5.5C 719.171,55.904 719.671,106.237 720.5,156.5C 722.358,160.527 723.025,164.86 722.5,169.5C 727.962,171.142 729.629,174.642 727.5,180C 730.988,180.324 732.988,182.158 733.5,185.5C 737.375,186.888 740.208,189.555 742,193.5C 743.973,194.64 745.807,195.973 747.5,197.5C 747.291,198.086 746.957,198.586 746.5,199C 749.368,200.383 752.368,201.216 755.5,201.5C 755.5,202.5 755.5,203.5 755.5,204.5C 758.887,205.018 762.221,205.851 765.5,207C 765.381,208.281 765.881,209.448 767,210.5C 772.283,208.688 777.116,209.354 781.5,212.5C 826.739,212.17 871.905,212.503 917,213.5C 918.255,212.789 919.421,211.956 920.5,211C 924.356,210.823 928.023,210.323 931.5,209.5C 932.267,208.828 932.934,207.995 933.5,207C 936.621,205.392 939.954,204.559 943.5,204.5C 943.5,203.5 943.5,202.5 943.5,201.5C 947.851,202.467 950.185,200.8 950.5,196.5C 951.552,196.649 952.552,196.483 953.5,196C 957.777,191.914 961.444,187.414 964.5,182.5C 965.5,182.5 966.5,182.5 967.5,182.5C 967.011,178.513 968.678,176.18 972.5,175.5C 973.873,170.688 974.707,165.688 975,160.5C 975.71,159.027 976.876,158.36 978.5,158.5C 978.5,106.833 978.5,55.1667 978.5,3.5C 979.5,3.5 980.5,3.5 981.5,3.5C 981.433,2.04125 981.766,0.707917 982.5,-0.5C 985.167,-0.5 987.833,-0.5 990.5,-0.5C 991.234,0.707917 991.567,2.04125 991.5,3.5C 992.833,3.5 994.167,3.5 995.5,3.5C 996.228,7.18509 998.561,9.01842 1002.5,9C 1004.36,10.5578 1005.86,12.3911 1007,14.5C 1007.91,13.3463 1008.75,13.513 1009.5,15C 1008.17,15.6667 1008.17,16.3333 1009.5,17C 1013.23,17.2474 1015.57,19.0807 1016.5,22.5C 1017.68,22.281 1018.68,22.6143 1019.5,23.5C 1024.83,29.3189 1030.5,34.8189 1036.5,40C 1036.17,40.3333 1035.83,40.6667 1035.5,41C 1040.49,43.4482 1043.49,47.1149 1044.5,52C 1045.45,52.4828 1046.45,52.6495 1047.5,52.5C 1047.5,55.8333 1049.17,57.5 1052.5,57.5C 1052.01,61.5032 1053.51,64.5032 1057,66.5C 1057.49,68.1341 1057.66,69.8008 1057.5,71.5C 1060.66,71.9168 1062.66,73.7502 1063.5,77C 1062.08,78.412 1062.24,79.5787 1064,80.5C 1064.33,80.1667 1064.67,79.8333 1065,79.5C 1066.02,81.3759 1066.85,83.3759 1067.5,85.5C 1068.52,86.8532 1069.86,87.5198 1071.5,87.5C 1071.34,90.1873 1071.5,92.854 1072,95.5C 1075.01,99.6476 1077.51,104.148 1079.5,109C 1080.65,110.73 1080.65,112.396 1079.5,114C 1081.99,115.325 1083.16,117.491 1083,120.5C 1083.67,119.167 1084.33,119.167 1085,120.5C 1086.14,126.141 1087.14,131.807 1088,137.5C 1088.41,137.043 1088.91,136.709 1089.5,136.5C 1090.37,142.614 1091.7,148.614 1093.5,154.5C 1093.39,155.442 1093.06,156.275 1092.5,157C 1094,157.833 1095.17,159 1096,160.5C 1096.5,165.489 1096.67,170.489 1096.5,175.5C 1096.71,176.922 1097.21,178.255 1098,179.5C 1099.07,199.935 1098.57,220.268 1096.5,240.5C 1096.67,246.176 1096.5,251.843 1096,257.5C 1095.17,259 1094,260.167 1092.5,261C 1093.54,264.346 1093.04,267.513 1091,270.5C 1090.5,273.817 1090.33,277.15 1090.5,280.5C 1089.5,280.5 1088.5,280.5 1087.5,280.5C 1087.46,286.003 1086.63,291.336 1085,296.5C 1081.66,305.123 1077.32,313.79 1072,322.5C 1071.51,324.134 1071.34,325.801 1071.5,327.5C 1070.5,327.5 1069.5,327.5 1068.5,327.5C 1067.98,330.887 1067.15,334.221 1066,337.5C 1064.72,337.381 1063.55,337.881 1062.5,339C 1063.02,339.561 1063.36,340.228 1063.5,341C 1062.66,344.25 1060.66,346.083 1057.5,346.5C 1057.66,348.199 1057.49,349.866 1057,351.5C 1053.51,353.497 1052.01,356.497 1052.5,360.5C 1051.45,360.351 1050.45,360.517 1049.5,361C 1048.17,363.667 1046.17,365.667 1043.5,367C 1043.83,367.333 1044.17,367.667 1044.5,368C 1042.47,372.035 1039.47,375.035 1035.5,377C 1035.83,377.333 1036.17,377.667 1036.5,378C 1030.71,382.615 1025.04,388.115 1019.5,394.5C 1018.68,395.386 1017.68,395.719 1016.5,395.5C 1016.04,398.957 1014.04,400.623 1010.5,400.5C 1010.5,401.833 1010.5,403.167 1010.5,404.5C 1006.5,403.668 1003.84,405.168 1002.5,409C 998.561,408.982 996.228,410.815 995.5,414.5C 994.167,414.5 992.833,414.5 991.5,414.5C 991.391,417.534 990.057,418.534 987.5,417.5C 985.821,419.104 983.821,419.771 981.5,419.5C 981.548,422.292 980.215,424.125 977.5,425C 975.866,425.494 974.199,425.66 972.5,425.5C 972.5,426.5 972.5,427.5 972.5,428.5C 970.833,428.5 969.167,428.5 967.5,428.5C 967.5,429.5 967.5,430.5 967.5,431.5C 963.833,432.167 960.167,432.833 956.5,433.5C 956.67,434.822 956.337,435.989 955.5,437C 952.529,437.794 949.529,438.461 946.5,439C 946.167,440 945.833,441 945.5,442C 940.202,443.159 934.869,443.993 929.5,444.5C 929.5,445.5 929.5,446.5 929.5,447.5C 927.396,447.201 925.396,447.534 923.5,448.5C 922.38,451.135 920.713,453.135 918.5,454.5C 917.842,495.638 917.508,536.805 917.5,578C 917.5,618.506 918.167,658.672 919.5,698.5C 927.737,703.249 933.237,710.249 936,719.5C 936.667,926.5 936.667,1133.5 936,1340.5C 932.833,1352.33 925.333,1359.83 913.5,1363C 871.833,1363.67 830.167,1363.67 788.5,1363C 776.667,1359.83 769.167,1352.33 766,1340.5C 765.333,1133.5 765.333,926.5 766,719.5C 767.62,711.886 771.62,705.886 778,701.5C 778.169,618.793 778.669,536.126 779.5,453.5C 776.791,449.647 773.124,447.647 768.5,447.5C 768.5,446.5 768.5,445.5 768.5,444.5C 763.492,443.833 758.492,443 753.5,442C 752.663,440.989 752.33,439.822 752.5,438.5C 749.432,438.453 746.432,437.953 743.5,437C 742.643,436.311 741.977,435.478 741.5,434.5C 735.968,432.628 730.635,430.461 725.5,428C 723.197,425.843 720.53,424.177 717.5,423C 717.167,422 716.833,421 716.5,420C 714.112,419.697 711.945,418.863 710,417.5C 709.667,417.833 709.333,418.167 709,418.5C 705.48,413.837 700.98,410.837 695.5,409.5C 695.5,408.5 695.5,407.5 695.5,406.5C 690.798,405.748 687.131,403.415 684.5,399.5C 683.675,398.614 682.675,398.281 681.5,398.5C 679.579,394.742 676.745,391.742 673,389.5C 672.428,386.293 670.595,384.626 667.5,384.5C 667.167,381.5 665.5,379.833 662.5,379.5C 660.965,376.768 659.131,374.102 657,371.5C 655.989,370.663 654.822,370.33 653.5,370.5C 653.66,368.801 653.494,367.134 653,365.5C 648.893,362.95 646.56,359.284 646,354.5C 645.586,354.957 645.086,355.291 644.5,355.5C 642.037,350.662 638.871,346.328 635,342.5C 633.851,339.221 633.018,335.887 632.5,332.5C 631.5,332.5 630.5,332.5 629.5,332.5C 628.833,329.167 628.167,325.833 627.5,322.5C 626.5,322.5 625.5,322.5 624.5,322.5C 624.66,320.801 624.494,319.134 624,317.5C 620.927,313.337 618.261,309.004 616,304.5C 614.853,299.534 614.02,294.534 613.5,289.5C 612.5,289.5 611.5,289.5 610.5,289.5C 609.704,283.183 609.037,276.85 608.5,270.5C 606.876,270.64 605.71,269.973 605,268.5C 602.119,248.548 600.952,228.381 601.5,208C 600.932,188.282 602.098,168.782 605,149.5C 605.71,148.027 606.876,147.36 608.5,147.5C 608.451,140.987 609.117,134.654 610.5,128.5C 611.5,128.5 612.5,128.5 613.5,128.5C 613.849,123.433 614.682,118.433 616,113.5C 618.261,108.996 620.927,104.663 624,100.5C 624.494,98.8659 624.66,97.1992 624.5,95.5C 625.5,95.5 626.5,95.5 627.5,95.5C 627.337,93.1432 627.503,90.8098 628,88.5C 628.908,86.5614 630.408,85.5614 632.5,85.5C 632.731,79.0759 635.398,73.9092 640.5,70C 640.167,69.6667 639.833,69.3333 639.5,69C 641.68,67.2392 643.346,65.0726 644.5,62.5C 645.086,62.7093 645.586,63.0426 646,63.5C 645.783,59.2447 647.616,56.578 651.5,55.5C 652.493,52.9267 653.326,50.26 654,47.5C 655,47.1667 656,46.8333 657,46.5C 659.09,43.9274 660.923,41.2607 662.5,38.5C 665.737,37.7516 667.903,35.7516 669,32.5C 669.333,32.8333 669.667,33.1667 670,33.5C 672.822,29.2567 676.322,25.5901 680.5,22.5C 681.386,21.675 681.719,20.675 681.5,19.5C 683.433,19.2714 685.1,18.4381 686.5,17C 686.833,16 687.167,15 687.5,14C 689.256,13.7978 690.922,13.2978 692.5,12.5C 697.161,9.38109 701.828,6.38109 706.5,3.5C 706.433,2.04125 706.766,0.707917 707.5,-0.5 Z"/></g>
<g><path style="opacity:0.016" fill="#000000" d="M 717.5,3.5 C 718.5,3.5 719.5,3.5 720.5,3.5C 721.822,54.6397 721.822,105.64 720.5,156.5C 719.671,106.237 719.171,55.904 719,5.5C 718.283,4.9558 717.783,4.28913 717.5,3.5 Z"/></g>
<g><path style="opacity:0.006" fill="#000000" d="M 1096.5,175.5 C 1097.75,175.577 1098.58,176.244 1099,177.5C 1099.67,197.5 1099.67,217.5 1099,237.5C 1098.76,239.119 1097.93,240.119 1096.5,240.5C 1098.57,220.268 1099.07,199.935 1098,179.5C 1097.21,178.255 1096.71,176.922 1096.5,175.5 Z"/></g>
<g><path style="opacity:0.005" fill="#000000" d="M 931.5,209.5 C 928.023,210.323 924.356,210.823 920.5,211C 919.421,211.956 918.255,212.789 917,213.5C 871.905,212.503 826.739,212.17 781.5,212.5C 826.998,211.667 872.665,211.167 918.5,211C 922.635,209.569 926.968,209.069 931.5,209.5 Z"/></g>
<g><path style="opacity:0.09" fill="#191010" d="M 918.5,454.5 C 919.499,535.665 919.833,616.998 919.5,698.5C 918.167,658.672 917.5,618.506 917.5,578C 917.508,536.805 917.842,495.638 918.5,454.5 Z"/></g>
<g><path style="opacity:0.968" fill="#1c1c1c" d="M 147.5,554.5 C 206.288,549.47 255.122,568.803 294,612.5C 328.436,658.004 339.102,708.671 326,764.5C 313.542,809.627 286.375,842.461 244.5,863C 280.167,863.333 315.833,863.667 351.5,864C 352.833,872 352.833,880 351.5,888C 289.5,888.667 227.5,888.667 165.5,888C 97.772,886.524 48.272,856.024 17,796.5C -0.5856,754.468 -3.25227,711.468 9,667.5C 32.0934,601.539 78.2601,563.872 147.5,554.5 Z M 154.5,578.5 C 227.206,577.084 275.039,610.75 298,679.5C 311.043,731.302 301.043,777.969 268,819.5C 233.102,856.022 190.602,870.188 140.5,862C 91.0444,851.548 57.2111,822.714 39,775.5C 20.6296,719.731 29.2963,668.731 65,622.5C 89.271,596.448 119.104,581.781 154.5,578.5 Z"/></g>
<g><path style="opacity:0.966" fill="#1c1c1c" d="M 1213.5,554.5 C 1247.05,551.409 1279.05,556.909 1309.5,571C 1323.66,578.832 1335.66,589.166 1345.5,602C 1339,607.833 1332.5,613.667 1326,619.5C 1301.55,591.869 1270.72,578.202 1233.5,578.5C 1182.05,578.966 1142.55,600.632 1115,643.5C 1088.74,693.197 1086.74,743.863 1109,795.5C 1135.22,845.381 1176.72,871.048 1233.5,872.5C 1274.64,872.68 1307.8,856.68 1333,824.5C 1338.83,829 1344.67,833.5 1350.5,838C 1351.45,838.718 1351.62,839.551 1351,840.5C 1308.43,890.464 1254.93,907.631 1190.5,892C 1120.13,871.96 1078.96,825.794 1067,753.5C 1060,704.16 1070.66,659.16 1099,618.5C 1128.42,581.7 1166.59,560.367 1213.5,554.5 Z"/></g>
<g><path style="opacity:0.967" fill="#1c1c1c" d="M 407.5,562.5 C 416.5,562.5 425.5,562.5 434.5,562.5C 434.333,634.167 434.5,705.834 435,777.5C 441.413,846.257 478.913,877.424 547.5,871C 584.038,864.8 607.872,843.967 619,808.5C 622.398,795.716 624.398,782.716 625,769.5C 625.5,700.501 625.667,631.501 625.5,562.5C 634.5,562.5 643.5,562.5 652.5,562.5C 652.667,634.167 652.5,705.834 652,777.5C 651.094,811.583 639.261,841.083 616.5,866C 591.801,887.958 562.801,898.124 529.5,896.5C 483.087,898.384 447.921,879.718 424,840.5C 414.929,822.218 409.596,802.885 408,782.5C 407.5,709.167 407.333,635.834 407.5,562.5 Z"/></g>
<g><path style="opacity:0.97" fill="#1c1c1c" d="M 1412.5,562.5 C 1421.5,562.5 1430.5,562.5 1439.5,562.5C 1439.33,611.168 1439.5,659.834 1440,708.5C 1491.83,660 1543.67,611.5 1595.5,563C 1608.18,562.167 1620.85,562.334 1633.5,563.5C 1579.34,612.823 1525.01,661.99 1470.5,711C 1527.83,769.667 1585.17,828.333 1642.5,887C 1629.5,887.667 1616.5,887.667 1603.5,887C 1549,829.833 1494.5,772.667 1440,715.5C 1439.5,772.832 1439.33,830.166 1439.5,887.5C 1430.5,887.5 1421.5,887.5 1412.5,887.5C 1412.5,779.167 1412.5,670.833 1412.5,562.5 Z"/></g>
<g><path style="opacity:0.969" fill="#1d1d1d" d="M 413.5,1007.5 C 477.833,1007.5 542.167,1007.5 606.5,1007.5C 606.5,1015.83 606.5,1024.17 606.5,1032.5C 551.167,1032.5 495.833,1032.5 440.5,1032.5C 440.5,1072.5 440.5,1112.5 440.5,1152.5C 491.833,1152.5 543.167,1152.5 594.5,1152.5C 594.5,1160.5 594.5,1168.5 594.5,1176.5C 543.167,1176.5 491.833,1176.5 440.5,1176.5C 440.5,1228.5 440.5,1280.5 440.5,1332.5C 431.5,1332.5 422.5,1332.5 413.5,1332.5C 413.5,1224.17 413.5,1115.83 413.5,1007.5 Z"/></g>
<g><path style="opacity:0.971" fill="#1c1c1c" d="M 1099.5,1008.5 C 1110.67,1007.18 1122.01,1007.18 1133.5,1008.5C 1163.14,1052.8 1193.14,1096.8 1223.5,1140.5C 1253.17,1096.5 1282.83,1052.5 1312.5,1008.5C 1323.15,1007.33 1333.82,1007.17 1344.5,1008C 1309.17,1059.33 1273.83,1110.67 1238.5,1162C 1277.96,1218.41 1317.29,1274.91 1356.5,1331.5C 1345.27,1332.82 1334.11,1332.82 1323,1331.5C 1289.67,1282.17 1256.33,1232.83 1223,1183.5C 1189.64,1232.7 1156.47,1282.03 1123.5,1331.5C 1112.18,1332.67 1100.85,1332.83 1089.5,1332C 1128.62,1275.59 1167.62,1219.09 1206.5,1162.5C 1170.81,1111.1 1135.14,1059.77 1099.5,1008.5 Z"/></g>
</svg>
