<?xml version="1.0" encoding="UTF-8"?>
<!DOCTYPE svg PUBLIC "-//W3C//DTD SVG 1.1//EN" "http://www.w3.org/Graphics/SVG/1.1/DTD/svg11.dtd">
<svg xmlns="http://www.w3.org/2000/svg" version="1.1" width="436px" height="435px" style="shape-rendering:geometricPrecision; text-rendering:geometricPrecision; image-rendering:optimizeQuality; fill-rule:evenodd; clip-rule:evenodd" xmlns:xlink="http://www.w3.org/1999/xlink">
<g><path style="opacity:0.964" fill="#fe0000" d="M 434.5,434.5 C 289.833,434.5 145.167,434.5 0.5,434.5C 72.0394,289.754 144.373,145.421 217.5,1.5C 290.627,145.421 362.961,289.754 434.5,434.5 Z M 216.5,63.5 C 217.376,63.3691 218.043,63.7025 218.5,64.5C 275.244,178.322 332.244,291.988 389.5,405.5C 274.833,406.833 160.167,406.833 45.5,405.5C 103.038,291.757 160.038,177.757 216.5,63.5 Z"/></g>
<g><path style="opacity:0.967" fill="#fe0000" d="M 205.5,203.5 C 213.507,203.334 221.507,203.5 229.5,204C 230.893,205.171 231.727,206.671 232,208.5C 232.667,234.833 232.667,261.167 232,287.5C 231.801,289.402 230.967,290.902 229.5,292C 221.5,292.667 213.5,292.667 205.5,292C 205,291.5 204.5,291 204,290.5C 203.333,262.167 203.333,233.833 204,205.5C 204.717,204.956 205.217,204.289 205.5,203.5 Z"/></g>
<g><path style="opacity:0.988" fill="#fe0000" d="M 205.5,319.5 C 213.507,319.334 221.507,319.5 229.5,320C 230,320.5 230.5,321 231,321.5C 231.667,329.5 231.667,337.5 231,345.5C 230.5,346 230,346.5 229.5,347C 221.5,347.667 213.5,347.667 205.5,347C 205,346.5 204.5,346 204,345.5C 203.333,337.5 203.333,329.5 204,321.5C 204.717,320.956 205.217,320.289 205.5,319.5 Z"/></g>
</svg>
